<?xml version="1.0" standalone="no"?>
<!DOCTYPE svg PUBLIC "-//W3C//DTD SVG 20010904//EN"
 "http://www.w3.org/TR/2001/REC-SVG-20010904/DTD/svg10.dtd">
<svg version="1.0" xmlns="http://www.w3.org/2000/svg"
 width="70.000000pt" height="70.000000pt" viewBox="0 0 70.000000 70.000000"
 preserveAspectRatio="xMidYMid meet">
<metadata>
Created by potrace 1.14, written by Peter Selinger 2001-2017
</metadata>
<g transform="translate(0.000000,70.000000) scale(0.100000,-0.100000)"
fill="#000000" stroke="none">
<path d="M0 473 c1 -185 3 -232 15 -247 11 -15 18 -17 27 -8 8 8 8 15 -2 27
-11 13 -9 15 10 15 15 0 20 -5 17 -14 -4 -9 3 -15 21 -19 15 -2 35 -8 44 -12
14 -5 18 -2 18 14 0 24 18 28 26 6 10 -25 45 -40 55 -24 5 8 7 20 4 27 -3 7 2
24 11 38 9 13 13 24 10 24 -4 0 -2 9 4 21 10 18 7 25 -21 50 -18 16 -38 29
-44 29 -7 0 -33 19 -59 41 -36 32 -46 47 -44 67 6 47 27 47 118 3 103 -50 168
-86 195 -109 39 -33 66 -44 80 -32 10 8 17 6 28 -11 17 -24 37 -18 37 12 0 11
4 18 8 15 10 -6 9 -31 -2 -65 -9 -25 -1 -34 61 -77 26 -18 50 -10 33 11 -9 10
-7 20 5 39 20 30 23 32 21 10 0 -9 4 -19 11 -21 9 -3 12 48 13 206 l0 211
-350 0 -350 0 0 -227z m620 -113 c0 -5 -4 -10 -10 -10 -5 0 -10 5 -10 10 0 6
5 10 10 10 6 0 10 -4 10 -10z m20 -39 c0 -6 -4 -13 -10 -16 -5 -3 -10 1 -10 9
0 9 5 16 10 16 6 0 10 -4 10 -9z m-520 -31 c0 -5 -4 -10 -10 -10 -5 0 -10 5
-10 10 0 6 5 10 10 10 6 0 10 -4 10 -10z m485 -1 c11 -17 -1 -21 -15 -4 -8 9
-8 15 -2 15 6 0 14 -5 17 -11z"/>
<path d="M395 240 c3 -5 10 -10 16 -10 5 0 9 5 9 10 0 6 -7 10 -16 10 -8 0
-12 -4 -9 -10z"/>
<path d="M0 190 c0 -5 5 -10 10 -10 6 0 10 5 10 10 0 6 -4 10 -10 10 -5 0 -10
-4 -10 -10z"/>
</g>
</svg>
