<?xml version="1.0" standalone="no"?>
<!DOCTYPE svg PUBLIC "-//W3C//DTD SVG 20010904//EN"
 "http://www.w3.org/TR/2001/REC-SVG-20010904/DTD/svg10.dtd">
<svg version="1.0" xmlns="http://www.w3.org/2000/svg"
 width="96.000000pt" height="96.000000pt" viewBox="0 0 96.000000 96.000000"
 preserveAspectRatio="xMidYMid meet">
<metadata>
Created by potrace 1.11, written by Peter Selinger 2001-2013
</metadata>
<g transform="translate(0.000000,96.000000) scale(0.100000,-0.100000)"
fill="#000000" stroke="none">
<path d="M342 869 c-31 -12 -78 -81 -97 -147 -15 -50 -23 -60 -59 -78 -153
-79 -15 -189 250 -200 302 -12 516 112 340 197 -36 18 -46 29 -56 63 -17 58
-54 128 -79 150 -19 17 -38 20 -150 21 -70 1 -137 -2 -149 -6z"/>
<path d="M190 395 c0 -7 13 -27 29 -44 16 -17 36 -50 45 -73 26 -65 73 -130
119 -163 35 -25 52 -30 97 -30 45 0 62 5 97 30 44 32 96 103 121 168 9 21 28
52 44 69 46 49 38 58 -34 38 l-63 -17 -22 -57 c-27 -70 -64 -121 -103 -141
-16 -8 -31 -15 -35 -15 -11 0 -4 62 10 91 14 27 14 33 -1 64 -9 20 -19 37 -23
40 -4 2 -41 7 -82 11 -40 4 -102 15 -136 24 -48 13 -63 14 -63 5z"/>
</g>
</svg>
